<?xml version="1.0" encoding="utf-8"?>
<!-- Generator: Adobe Illustrator 21.0.0, SVG Export Plug-In . SVG Version: 6.00 Build 0)  -->
<svg version="1.1" xmlns="http://www.w3.org/2000/svg" xmlns:xlink="http://www.w3.org/1999/xlink" x="0px" y="0px"
	 viewBox="0 0 512 512" style="enable-background:new 0 0 512 512;" xml:space="preserve">
<style type="text/css">
	.st0{opacity:0.77;fill:#01A0C6;}
	.st1{opacity:0.77;fill:#FF0000;}
</style>
<g id="Layer_4">
	<path class="st0" d="M486.2,503.5L277.3,351.8L68.4,503.5c0,0-1-433.5,0-468.9C69.4-0.9,102.9,8,102.9,8h348.8
		c0,0,33.5-8.9,34.5,26.6C487.2,70,486.2,503.5,486.2,503.5z"/>
</g>
<g id="Layer_3">
	<path class="st1" d="M445.6,503.5L236.7,351.8L27.8,503.5c0,0-1-433.5,0-468.9C28.8-0.9,62.3,8,62.3,8h348.8
		c0,0,33.5-8.9,34.5,26.6C446.6,70,445.6,503.5,445.6,503.5z"/>
</g>
<g id="Layer_2">
	<path d="M464.3,503.5L255.4,351.8L46.5,503.5c0,0-1-433.5,0-468.9C47.5-0.9,81,8,81,8h348.8c0,0,33.5-8.9,34.5,26.6
		C465.3,70,464.3,503.5,464.3,503.5z"/>
</g>
</svg>
