<?xml version="1.0" encoding="UTF-8" standalone="no"?> <svg width="512" height="512" viewBox="0 0 512 512" fill="none" xmlns="http://www.w3.org/2000/svg">
<path d="M192 200C187.254 200 182.613 201.408 178.667 204.045C174.72 206.682 171.644 210.43 169.827 214.816C168.011 219.201 167.535 224.027 168.461 228.682C169.388 233.338 171.673 237.614 175.03 240.971C178.386 244.327 182.663 246.613 187.318 247.539C191.974 248.465 196.799 247.99 201.185 246.173C205.57 244.357 209.318 241.28 211.956 237.334C214.593 233.387 216 228.747 216 224C215.993 217.637 213.462 211.537 208.963 207.037C204.464 202.538 198.363 200.007 192 200ZM192 232C190.418 232 188.871 231.531 187.556 230.652C186.24 229.773 185.215 228.523 184.609 227.061C184.004 225.6 183.845 223.991 184.154 222.439C184.463 220.887 185.225 219.462 186.343 218.343C187.462 217.224 188.888 216.462 190.44 216.154C191.991 215.845 193.6 216.003 195.062 216.609C196.524 217.214 197.773 218.24 198.652 219.555C199.531 220.871 200 222.418 200 224C199.998 226.121 199.154 228.154 197.655 229.654C196.155 231.154 194.121 231.998 192 232ZM360 256C360 251.253 358.593 246.613 355.956 242.666C353.318 238.72 349.57 235.643 345.185 233.827C340.799 232.01 335.974 231.535 331.318 232.461C326.663 233.387 322.386 235.673 319.03 239.029C315.673 242.386 313.388 246.662 312.461 251.318C311.535 255.973 312.011 260.799 313.827 265.184C315.644 269.57 318.72 273.318 322.667 275.955C326.613 278.592 331.254 280 336 280C342.363 279.993 348.464 277.462 352.963 272.963C357.462 268.463 359.993 262.363 360 256V256ZM328 256C328 254.418 328.469 252.871 329.349 251.555C330.228 250.24 331.477 249.214 332.939 248.609C334.401 248.003 336.009 247.845 337.561 248.154C339.113 248.462 340.538 249.224 341.657 250.343C342.776 251.462 343.538 252.887 343.847 254.439C344.155 255.991 343.997 257.6 343.391 259.061C342.786 260.523 341.76 261.773 340.445 262.652C339.129 263.531 337.583 264 336 264C333.879 263.998 331.846 263.154 330.346 261.654C328.846 260.154 328.003 258.121 328 256ZM216 392C216 396.747 217.408 401.387 220.045 405.334C222.682 409.28 226.43 412.357 230.816 414.173C235.201 415.99 240.027 416.465 244.682 415.539C249.338 414.613 253.614 412.327 256.971 408.971C260.327 405.614 262.613 401.338 263.539 396.682C264.465 392.027 263.99 387.201 262.173 382.816C260.357 378.43 257.281 374.682 253.334 372.045C249.387 369.408 244.747 368 240 368C233.637 368.007 227.537 370.538 223.038 375.037C218.538 379.537 216.007 385.637 216 392V392ZM248 392C248 393.582 247.531 395.129 246.652 396.445C245.773 397.76 244.524 398.786 243.062 399.391C241.6 399.997 239.991 400.155 238.44 399.846C236.888 399.538 235.462 398.776 234.343 397.657C233.225 396.538 232.463 395.113 232.154 393.561C231.845 392.009 232.004 390.4 232.609 388.939C233.215 387.477 234.24 386.227 235.556 385.348C236.871 384.469 238.418 384 240 384C242.121 384.002 244.155 384.846 245.655 386.346C247.154 387.846 247.998 389.879 248 392V392ZM216 472C216 467.253 214.593 462.613 211.956 458.666C209.318 454.72 205.57 451.643 201.185 449.827C196.799 448.01 191.974 447.535 187.318 448.461C182.663 449.387 178.386 451.673 175.03 455.029C171.673 458.386 169.388 462.662 168.461 467.318C167.535 471.973 168.011 476.799 169.827 481.184C171.644 485.57 174.72 489.318 178.667 491.955C182.613 494.592 187.254 496 192 496C198.363 495.993 204.464 493.462 208.963 488.963C213.462 484.463 215.993 478.363 216 472V472ZM184 472C184 470.418 184.47 468.871 185.349 467.555C186.228 466.24 187.477 465.214 188.939 464.609C190.401 464.003 192.009 463.845 193.561 464.154C195.113 464.462 196.538 465.224 197.657 466.343C198.776 467.462 199.538 468.887 199.847 470.439C200.155 471.991 199.997 473.6 199.391 475.061C198.786 476.523 197.76 477.773 196.445 478.652C195.129 479.531 193.583 480 192 480C189.879 479.998 187.846 479.154 186.346 477.654C184.846 476.154 184.003 474.121 184 472V472ZM392 464H424C425.784 464 427.517 463.404 428.924 462.305C430.33 461.207 431.329 459.671 431.761 457.94L439.761 425.94C440.056 424.761 440.078 423.529 439.826 422.34C439.574 421.151 439.054 420.035 438.306 419.077C437.558 418.118 436.601 417.343 435.508 416.81C434.416 416.277 433.216 416 432 416H400C398.216 416 396.483 416.596 395.077 417.695C393.671 418.793 392.672 420.329 392.239 422.06L384.239 454.06C383.945 455.239 383.922 456.471 384.175 457.66C384.427 458.849 384.947 459.965 385.695 460.923C386.443 461.882 387.4 462.657 388.492 463.19C389.585 463.723 390.785 464 392 464V464ZM406.246 432H421.754L417.754 448H402.246L406.246 432ZM327.761 441.94L335.761 409.94C336.056 408.761 336.078 407.529 335.826 406.34C335.574 405.151 335.054 404.035 334.306 403.077C333.558 402.118 332.601 401.343 331.508 400.81C330.416 400.277 329.216 400 328 400H296C294.216 400 292.483 400.596 291.077 401.695C289.671 402.793 288.672 404.329 288.239 406.06L280.239 438.06C279.945 439.239 279.922 440.471 280.175 441.66C280.427 442.849 280.947 443.965 281.695 444.923C282.443 445.882 283.4 446.657 284.492 447.19C285.585 447.723 286.785 448 288 448H320C321.784 448 323.517 447.404 324.924 446.305C326.33 445.207 327.329 443.671 327.761 441.94V441.94ZM313.754 432H298.246L302.246 416H317.754L313.754 432ZM104 304H136C137.216 304 138.416 303.723 139.508 303.19C140.601 302.657 141.558 301.882 142.306 300.923C143.054 299.965 143.574 298.849 143.826 297.66C144.078 296.471 144.056 295.239 143.761 294.06L135.761 262.06C135.329 260.329 134.33 258.793 132.924 257.695C131.517 256.596 129.784 256 128 256H96.0003C94.7846 256 93.5849 256.277 92.4923 256.81C91.3998 257.343 90.4431 258.118 89.6949 259.077C88.9468 260.035 88.4268 261.151 88.1746 262.34C87.9224 263.529 87.9445 264.761 88.2393 265.94L96.2393 297.94C96.672 299.671 97.6708 301.207 99.077 302.305C100.483 303.404 102.216 304 104 304V304ZM121.754 272L125.754 288H110.246L106.246 272H121.754ZM30.3243 258.014C31.3011 259.897 32.9859 261.316 35.0083 261.957C37.0306 262.598 39.2249 262.41 41.1083 261.433L253.02 151.533C254.226 150.909 255.252 149.987 256 148.855C256.749 149.987 257.775 150.909 258.98 151.533L470.892 261.433C472.776 262.41 474.97 262.598 476.992 261.957C479.015 261.316 480.7 259.897 481.676 258.014C493.523 235.196 498.184 209.326 495.044 183.808C491.904 158.29 481.111 134.321 464.086 115.056C447.061 95.7909 424.601 82.1324 399.663 75.8783C374.725 69.6242 348.478 71.0678 324.376 80.019C324.25 80.013 324.127 80 324 80H311.324C305.11 80 298.956 78.7759 293.214 76.3977C287.473 74.0194 282.256 70.5336 277.861 66.1391C273.467 61.7447 269.981 56.5277 267.603 50.7861C265.224 45.0445 264 38.8907 264 32.676V24C264 21.8783 263.157 19.8434 261.657 18.3431C260.157 16.8429 258.122 16 256 16C253.879 16 251.844 16.8429 250.343 18.3431C248.843 19.8434 248 21.8783 248 24V32.676C248.001 38.8907 246.777 45.0447 244.399 50.7864C242.02 56.5282 238.535 61.7452 234.14 66.1397C229.746 70.5342 224.528 74.02 218.787 76.3982C213.045 78.7764 206.891 80.0003 200.676 80H187.576C163.475 71.0598 137.232 69.6256 112.3 75.8861C87.3679 82.1467 64.9154 95.8086 47.8968 115.074C30.8781 134.34 20.0908 158.306 16.9542 183.82C13.8177 209.334 18.4788 235.2 30.3243 258.014V258.014ZM41.0973 243.414C38.8114 238.11 36.9433 232.635 35.5103 227.04L228.131 127.145C231.881 131.54 235.281 136.22 238.3 141.145L41.0973 243.414ZM470.903 243.414L273.7 141.144C276.719 136.22 280.117 131.539 283.864 127.144L476.49 227.044C475.056 232.639 473.187 238.113 470.9 243.416L470.903 243.414ZM419.886 100.527C439.667 110.814 455.911 126.793 466.522 146.402C477.133 166.011 481.624 188.35 479.415 210.536L295.671 115.246C312.533 100.659 333.38 91.4598 355.521 88.8362C377.663 86.2125 400.082 90.2847 419.886 100.527V100.527ZM254.977 65.256C255.328 64.67 255.669 64.0787 256 63.482C256.334 64.078 256.675 64.6693 257.024 65.256C261.391 72.4846 267.151 78.7725 273.971 83.7539C280.79 88.7354 288.532 92.3107 296.746 94.272C279.634 105.929 265.643 121.606 256 139.929C246.358 121.606 232.367 105.929 215.255 94.272C223.469 92.3106 231.211 88.7351 238.031 83.7537C244.85 78.7723 250.611 72.4845 254.977 65.256V65.256ZM92.1143 100.528C107.892 92.3203 125.415 88.036 143.2 88.038C170.047 88.0547 195.996 97.7117 216.321 115.251L32.5853 210.536C30.3764 188.35 34.8672 166.011 45.4782 146.402C56.0892 126.793 72.3334 110.815 92.1143 100.528V100.528ZM203.354 319.562C203.756 320.798 204.453 321.917 205.384 322.823C206.316 323.729 207.454 324.395 208.7 324.762L229.274 330.827L241.4 348.522C242.135 349.594 243.12 350.472 244.27 351.078C245.42 351.684 246.7 352.001 248 352.001C249.3 352.001 250.581 351.684 251.731 351.078C252.881 350.472 253.866 349.594 254.6 348.522L266.727 330.829L287.301 324.764C288.548 324.397 289.686 323.731 290.618 322.825C291.55 321.918 292.246 320.799 292.648 319.563C293.05 318.327 293.144 317.011 292.923 315.731C292.702 314.45 292.173 313.242 291.38 312.212L278.299 295.212L278.889 273.77C278.925 272.471 278.644 271.182 278.069 270.016C277.495 268.85 276.646 267.842 275.594 267.078C274.543 266.314 273.321 265.818 272.034 265.632C270.748 265.447 269.436 265.577 268.211 266.013L248 273.2L227.79 266.014C226.566 265.578 225.254 265.448 223.967 265.633C222.681 265.819 221.459 266.315 220.407 267.079C219.356 267.843 218.506 268.851 217.932 270.017C217.358 271.183 217.077 272.472 217.112 273.771L217.702 295.213L204.621 312.213C203.829 313.243 203.3 314.45 203.079 315.731C202.858 317.011 202.953 318.326 203.354 319.562ZM232.118 302.713C233.241 301.254 233.825 299.453 233.774 297.613L233.428 285L245.319 289.229C247.054 289.845 248.947 289.845 250.681 289.229L262.572 285L262.226 297.617C262.175 299.457 262.76 301.258 263.882 302.717L271.582 312.717L259.476 316.286C257.711 316.806 256.179 317.919 255.139 319.437L248 329.849L240.864 319.437C239.824 317.919 238.293 316.806 236.527 316.286L224.421 312.717L232.118 302.713ZM83.4843 408.68C83.8423 409.929 84.4994 411.073 85.3986 412.011C86.2979 412.95 87.4122 413.655 88.6453 414.066L109 420.85L120.5 438.958C121.197 440.055 122.15 440.967 123.278 441.613C124.406 442.259 125.674 442.62 126.973 442.666C127.068 442.666 127.161 442.666 127.255 442.666C128.507 442.666 129.742 442.372 130.86 441.808C131.978 441.244 132.948 440.425 133.691 439.418L146.43 422.161L167.206 416.822C168.465 416.498 169.626 415.873 170.589 415C171.551 414.127 172.287 413.033 172.732 411.812C173.176 410.591 173.317 409.28 173.141 407.992C172.966 406.705 172.479 405.479 171.723 404.422L159.247 386.973L160.59 365.565C160.672 364.268 160.436 362.97 159.903 361.784C159.37 360.599 158.557 359.561 157.532 358.76C156.508 357.96 155.304 357.421 154.025 357.19C152.746 356.96 151.43 357.044 150.19 357.437L129.738 363.91L109.793 356.017C108.584 355.537 107.276 355.36 105.983 355.5C104.689 355.64 103.449 356.093 102.371 356.82C101.292 357.547 100.407 358.527 99.7924 359.673C99.1777 360.82 98.852 362.099 98.8433 363.4L98.6793 384.85L85.0103 401.378C84.1819 402.38 83.61 403.568 83.3441 404.84C83.0782 406.113 83.1264 407.43 83.4843 408.68ZM112.822 392.852C113.995 391.434 114.643 389.654 114.657 387.814L114.757 375.193L126.494 379.837C128.206 380.514 130.098 380.58 131.852 380.025L143.886 376.216L143.096 388.816C142.981 390.652 143.502 392.472 144.572 393.969L151.913 404.237L139.688 407.379C137.905 407.838 136.335 408.897 135.242 410.379L127.742 420.533L120.978 409.877C119.991 408.324 118.5 407.159 116.754 406.577L104.778 402.585L112.822 392.852ZM451.731 335.8C452.073 334.546 452.104 333.228 451.822 331.959C451.54 330.691 450.952 329.51 450.111 328.519L436.229 312.167L435.787 290.722C435.761 289.423 435.418 288.149 434.788 287.012C434.159 285.875 433.262 284.908 432.175 284.195C431.088 283.483 429.844 283.046 428.55 282.922C427.256 282.799 425.952 282.992 424.749 283.486L404.908 291.636L384.376 285.429C383.132 285.053 381.815 284.985 380.539 285.232C379.263 285.48 378.066 286.034 377.053 286.848C376.039 287.661 375.239 288.71 374.722 289.902C374.204 291.094 373.985 292.395 374.083 293.691L375.7 315.08L363.453 332.69C362.711 333.757 362.24 334.989 362.081 336.278C361.922 337.568 362.08 338.877 362.54 340.093C363.001 341.308 363.751 342.393 364.725 343.253C365.699 344.114 366.868 344.724 368.13 345.031L388.973 350.1L401.936 367.19C402.682 368.174 403.646 368.971 404.751 369.521C405.857 370.07 407.075 370.356 408.309 370.356C408.436 370.356 408.565 370.356 408.694 370.347C409.992 370.284 411.256 369.907 412.375 369.246C413.494 368.585 414.436 367.662 415.118 366.556L426.382 348.3L446.641 341.252C447.869 340.825 448.974 340.105 449.861 339.155C450.747 338.206 451.39 337.054 451.731 335.8V335.8ZM418.438 334.123C416.7 334.728 415.224 335.913 414.258 337.479L407.631 348.221L400 338.165C398.888 336.699 397.305 335.661 395.517 335.226L383.252 332.243L390.459 321.88C391.51 320.369 392.008 318.543 391.869 316.708L390.916 304.123L403 307.775C404.762 308.307 406.653 308.216 408.355 307.517L420.03 302.717L420.29 315.336C420.329 317.176 421 318.946 422.19 320.349L430.359 329.971L418.438 334.123Z" fill="url(#paint0_linear_18_84093)"/>
<defs>
<linearGradient id="paint0_linear_18_84093" x1="100.18" y1="426.795" x2="438.169" y2="88.806" gradientUnits="userSpaceOnUse">
<stop stop-color="#41DFD0"/>
<stop offset="1" stop-color="#EE83EF"/>
</linearGradient>
</defs>
</svg>
